<svg xmlns="http://www.w3.org/2000/svg" xmlns:xlink="http://www.w3.org/1999/xlink" width="128" height="104" viewBox="0 0 128 104">
  <metadata><?xpacket begin="﻿" id="W5M0MpCehiHzreSzNTczkc9d"?>
<x:xmpmeta xmlns:x="adobe:ns:meta/" x:xmptk="Adobe XMP Core 5.6-c142 79.160924, 2017/07/13-01:06:39        ">
   <rdf:RDF xmlns:rdf="http://www.w3.org/1999/02/22-rdf-syntax-ns#">
      <rdf:Description rdf:about=""/>
   </rdf:RDF>
</x:xmpmeta>
                                                                                                    
                                                                                                    
                                                                                                    
                                                                                                    
                                                                                                    
                                                                                                    
                                                                                                    
                                                                                                    
                                                                                                    
                                                                                                    
                                                                                                    
                                                                                                    
                                                                                                    
                                                                                                    
                                                                                                    
                                                                                                    
                                                                                                    
                                                                                                    
                                                                                                    
                                                                                                    
                           
<?xpacket end="w"?></metadata>
<defs>
    <style>
      .cls-1 {
        fill-rule: evenodd;
        fill: url(#linear-gradient);
      }
    </style>
    <linearGradient id="linear-gradient" x1="2920.821" y1="524" x2="2827.179" y2="420" gradientUnits="userSpaceOnUse">
      <stop offset="0" stop-color="#df398a"/>
      <stop offset="1" stop-color="#876af2"/>
    </linearGradient>
  </defs>
  <path id="_128.png" data-name="128.png" class="cls-1" d="M2833.58,422.035a30.045,30.045,0,0,0-19.76,22.975l4.05,0.848a25.836,25.836,0,0,1,16.97-19.737Zm-11,1.386L2820.09,420A38.141,38.141,0,0,0,2810,431.979l3.61,2.1A34.14,34.14,0,0,1,2822.58,423.421Zm91.84-1.386-1.27,4.086a25.829,25.829,0,0,1,16.98,19.737l4.05-.848A30.045,30.045,0,0,0,2914.42,422.035ZM2927.91,420l-2.49,3.424a34.14,34.14,0,0,1,8.97,10.657l3.61-2.1A38.141,38.141,0,0,0,2927.91,420Zm-35.01,10.5a31.148,31.148,0,0,0-18.9,6.365,31.292,31.292,0,0,0-41.61,3.382c-12.92,13.393-9.41,34.227-.68,47.909,7.35,11.53,17.32,20.129,39.5,34.08l2.79,1.757,2.79-1.757c22.18-13.951,32.15-22.55,39.5-34.08,8.73-13.682,12.24-34.516-.68-47.909A31.363,31.363,0,0,0,2892.9,430.5Zm14.41,51.5c-6.06,9.513-14.63,17-33.31,28.929-18.68-11.93-27.25-19.416-33.31-28.929-6.6-10.339-8.95-25.291-.69-33.866a20.885,20.885,0,0,1,15.1-6.481c12.63,0,18.9,10.425,18.9,10.425s6.27-10.425,18.9-10.425a20.885,20.885,0,0,1,15.1,6.481C2916.26,456.708,2913.91,471.66,2907.31,482Zm-29.89-17.975h-6.84v12.54l16.2,10.7,3.67-5.969-13.03-8.611v-8.659Z" transform="translate(-2810 -420)"/>
</svg>
