<svg xmlns="http://www.w3.org/2000/svg" xmlns:xlink="http://www.w3.org/1999/xlink" width="64" height="52" viewBox="0 0 64 52">
  <metadata><?xpacket begin="﻿" id="W5M0MpCehiHzreSzNTczkc9d"?>
<x:xmpmeta xmlns:x="adobe:ns:meta/" x:xmptk="Adobe XMP Core 5.6-c142 79.160924, 2017/07/13-01:06:39        ">
   <rdf:RDF xmlns:rdf="http://www.w3.org/1999/02/22-rdf-syntax-ns#">
      <rdf:Description rdf:about=""/>
   </rdf:RDF>
</x:xmpmeta>
                                                                                                    
                                                                                                    
                                                                                                    
                                                                                                    
                                                                                                    
                                                                                                    
                                                                                                    
                                                                                                    
                                                                                                    
                                                                                                    
                                                                                                    
                                                                                                    
                                                                                                    
                                                                                                    
                                                                                                    
                                                                                                    
                                                                                                    
                                                                                                    
                                                                                                    
                                                                                                    
                           
<?xpacket end="w"?></metadata>
<defs>
    <style>
      .cls-1 {
        fill-rule: evenodd;
        fill: url(#linear-gradient);
      }
    </style>
    <linearGradient id="linear-gradient" x1="2787.411" y1="472" x2="2740.589" y2="420" gradientUnits="userSpaceOnUse">
      <stop offset="0" stop-color="#df398a"/>
      <stop offset="1" stop-color="#876af2"/>
    </linearGradient>
  </defs>
  <path id="_64.png" data-name="64.png" class="cls-1" d="M2743.79,421.018a15.023,15.023,0,0,0-9.88,11.487l2.03,0.424a12.9,12.9,0,0,1,8.48-9.868Zm-5.5.692L2737.04,420a19.179,19.179,0,0,0-5.04,5.99l1.81,1.05A17,17,0,0,1,2738.29,421.71Zm45.92-.692-0.63,2.043a12.9,12.9,0,0,1,8.48,9.868l2.03-.424A15.023,15.023,0,0,0,2784.21,421.018Zm6.75-1.019-1.25,1.711a17,17,0,0,1,4.48,5.329l1.81-1.05A19.179,19.179,0,0,0,2790.96,420Zm-17.51,5.25a15.62,15.62,0,0,1-18.9,0,15.663,15.663,0,0,0-11.35,4.874c-6.47,6.7-4.71,17.113-.34,23.955,3.67,5.764,8.65,10.064,19.74,17.039L2764,472l1.4-.879c11.09-6.975,16.07-11.275,19.74-17.039,4.37-6.842,6.13-17.259-.34-23.955A15.663,15.663,0,0,0,2773.45,425.249Zm7.2,25.75c-3.02,4.757-7.31,8.5-16.65,14.465-9.34-5.965-13.63-9.708-16.65-14.465-3.31-5.169-4.48-12.645-.35-16.932a10.439,10.439,0,0,1,7.55-3.241,11.173,11.173,0,0,0,18.9,0,10.439,10.439,0,0,1,7.55,3.241C2785.13,438.354,2783.96,445.83,2780.65,451Zm-14.94-8.987h-3.42v6.27l8.1,5.35,1.83-2.985-6.51-4.306v-4.329Z" transform="translate(-2732 -420)"/>
</svg>
