<svg xmlns="http://www.w3.org/2000/svg" width="20" height="20" viewBox="0 0 20 20">
  <metadata><?xpacket begin="﻿" id="W5M0MpCehiHzreSzNTczkc9d"?>
<x:xmpmeta xmlns:x="adobe:ns:meta/" x:xmptk="Adobe XMP Core 5.6-c142 79.160924, 2017/07/13-01:06:39        ">
   <rdf:RDF xmlns:rdf="http://www.w3.org/1999/02/22-rdf-syntax-ns#">
      <rdf:Description rdf:about=""/>
   </rdf:RDF>
</x:xmpmeta>
                                                                                                    
                                                                                                    
                                                                                                    
                                                                                                    
                                                                                                    
                                                                                                    
                                                                                                    
                                                                                                    
                                                                                                    
                                                                                                    
                                                                                                    
                                                                                                    
                                                                                                    
                                                                                                    
                                                                                                    
                                                                                                    
                                                                                                    
                                                                                                    
                                                                                                    
                                                                                                    
                           
<?xpacket end="w"?></metadata>
<defs>
    <style>
      .cls-1 {
        fill: #5b5959;
        fill-rule: evenodd;
      }
    </style>
  </defs>
  <path id="faq.svg" class="cls-1" d="M46.694,440.407a1.049,1.049,0,0,0,0,2.1A1.049,1.049,0,0,0,46.694,440.407Zm0.177-7.938c-1.838,0-2.682,1.089-2.682,1.824a0.781,0.781,0,0,0,.817.776c0.735,0,.436-1.048,1.825-1.048a1.031,1.031,0,0,1,1.225.926c0,0.735-.762,1.157-1.212,1.538a2.494,2.494,0,0,0-.912,2.07c0,0.708.191,0.912,0.749,0.912,0.667,0,.8-0.3.8-0.558a1.71,1.71,0,0,1,.762-1.7,3.486,3.486,0,0,0,1.525-2.492C49.771,433.436,48.614,432.469,46.871,432.469ZM47,427a9.994,9.994,0,0,0-10,10v9.219a0.781,0.781,0,0,0,.781.781H47A10,10,0,0,0,47,427Zm0,18.437H38.563V437A8.438,8.438,0,1,1,47,445.437Z" transform="translate(-37 -427)"/>
</svg>
