<svg xmlns="http://www.w3.org/2000/svg" width="29" height="27" viewBox="0 0 29 27">
  <metadata><?xpacket begin="﻿" id="W5M0MpCehiHzreSzNTczkc9d"?>
<x:xmpmeta xmlns:x="adobe:ns:meta/" x:xmptk="Adobe XMP Core 5.6-c142 79.160924, 2017/07/13-01:06:39        ">
   <rdf:RDF xmlns:rdf="http://www.w3.org/1999/02/22-rdf-syntax-ns#">
      <rdf:Description rdf:about=""/>
   </rdf:RDF>
</x:xmpmeta>
                                                                                                    
                                                                                                    
                                                                                                    
                                                                                                    
                                                                                                    
                                                                                                    
                                                                                                    
                                                                                                    
                                                                                                    
                                                                                                    
                                                                                                    
                                                                                                    
                                                                                                    
                                                                                                    
                                                                                                    
                                                                                                    
                                                                                                    
                                                                                                    
                                                                                                    
                                                                                                    
                           
<?xpacket end="w"?></metadata>
<defs>
    <style>
      .cls-1 {
        fill: #a7a7a7;
        fill-rule: evenodd;
      }
    </style>
  </defs>
  <path id="heart.svg" class="cls-1" d="M1224.97,3833.76a9.051,9.051,0,0,1-10.94,0,9.059,9.059,0,0,0-6.57,2.82c-3.74,3.86-2.73,9.88-.2,13.83,2.13,3.33,5.01,5.81,11.43,9.84l0.81,0.51,0.81-.51c6.42-4.03,9.3-6.51,11.43-9.84,2.52-3.95,3.54-9.97-.2-13.83A9.076,9.076,0,0,0,1224.97,3833.76Zm4.17,14.87c-1.75,2.75-4.23,4.91-9.64,8.36-5.41-3.45-7.89-5.61-9.64-8.36-1.91-2.98-2.59-7.3-.2-9.78a6.071,6.071,0,0,1,4.37-1.87,6.475,6.475,0,0,0,10.94,0,6.071,6.071,0,0,1,4.37,1.87C1231.73,3841.33,1231.05,3845.65,1229.14,3848.63Z" transform="translate(-1205 -3833.75)"/>
</svg>
