<svg xmlns="http://www.w3.org/2000/svg" xmlns:xlink="http://www.w3.org/1999/xlink" width="37" height="29" viewBox="0 0 37 29">
  <metadata><?xpacket begin="﻿" id="W5M0MpCehiHzreSzNTczkc9d"?>
<x:xmpmeta xmlns:x="adobe:ns:meta/" x:xmptk="Adobe XMP Core 5.6-c142 79.160924, 2017/07/13-01:06:39        ">
   <rdf:RDF xmlns:rdf="http://www.w3.org/1999/02/22-rdf-syntax-ns#">
      <rdf:Description rdf:about=""/>
   </rdf:RDF>
</x:xmpmeta>
                                                                                                    
                                                                                                    
                                                                                                    
                                                                                                    
                                                                                                    
                                                                                                    
                                                                                                    
                                                                                                    
                                                                                                    
                                                                                                    
                                                                                                    
                                                                                                    
                                                                                                    
                                                                                                    
                                                                                                    
                                                                                                    
                                                                                                    
                                                                                                    
                                                                                                    
                                                                                                    
                           
<?xpacket end="w"?></metadata>
<defs>
    <style>
      .cls-1 {
        fill-rule: evenodd;
        fill: url(#linear-gradient);
      }
    </style>
    <linearGradient id="linear-gradient" x1="2683.556" y1="390" x2="2657.444" y2="361" gradientUnits="userSpaceOnUse">
      <stop offset="0" stop-color="#df398a"/>
      <stop offset="1" stop-color="#876af2"/>
    </linearGradient>
  </defs>
  <path id="logo.svg" class="cls-1" d="M2658.82,361.568a8.489,8.489,0,0,0-5.72,6.406l1.18,0.236a7.281,7.281,0,0,1,4.9-5.5Zm-3.18.386-0.72-.955a10.789,10.789,0,0,0-2.92,3.341l1.04,0.585A9.613,9.613,0,0,1,2655.64,361.954Zm26.54-.386-0.36,1.139a7.281,7.281,0,0,1,4.9,5.5l1.18-.236A8.489,8.489,0,0,0,2682.18,361.568Zm3.9-.569-0.72.955a9.613,9.613,0,0,1,2.6,2.971l1.04-.585A10.789,10.789,0,0,0,2686.08,361Zm-10.12,2.928a9.285,9.285,0,0,1-10.92,0,9.251,9.251,0,0,0-6.57,2.718c-3.73,3.735-2.72,9.544-.19,13.36,2.12,3.215,5,5.612,11.41,9.5l0.81,0.49,0.81-.49c6.41-3.891,9.29-6.288,11.41-9.5,2.53-3.816,3.54-9.625-.19-13.36A9.251,9.251,0,0,0,2675.96,363.927Zm4.17,14.361c-1.75,2.653-4.23,4.74-9.63,8.067-5.4-3.327-7.88-5.414-9.63-8.067-1.91-2.883-2.59-7.052-.2-9.443a6.156,6.156,0,0,1,4.37-1.807,6.582,6.582,0,0,0,10.92,0,6.156,6.156,0,0,1,4.37,1.807C2682.72,371.236,2682.04,375.405,2680.13,378.288Zm-8.64-5.012h-1.98v3.5l4.68,2.983,1.06-1.664-3.76-2.4v-2.414Z" transform="translate(-2652 -361)"/>
</svg>
