<svg xmlns="http://www.w3.org/2000/svg" xmlns:xlink="http://www.w3.org/1999/xlink" width="13.031" height="18" viewBox="0 0 13.031 18">
  <metadata><?xpacket begin="﻿" id="W5M0MpCehiHzreSzNTczkc9d"?>
<x:xmpmeta xmlns:x="adobe:ns:meta/" x:xmptk="Adobe XMP Core 5.6-c142 79.160924, 2017/07/13-01:06:39        ">
   <rdf:RDF xmlns:rdf="http://www.w3.org/1999/02/22-rdf-syntax-ns#">
      <rdf:Description rdf:about=""/>
   </rdf:RDF>
</x:xmpmeta>
                                                                                                    
                                                                                                    
                                                                                                    
                                                                                                    
                                                                                                    
                                                                                                    
                                                                                                    
                                                                                                    
                                                                                                    
                                                                                                    
                                                                                                    
                                                                                                    
                                                                                                    
                                                                                                    
                                                                                                    
                                                                                                    
                                                                                                    
                                                                                                    
                                                                                                    
                                                                                                    
                           
<?xpacket end="w"?></metadata>
<defs>
    <style>
      .cls-1 {
        fill: #fff;
        fill-rule: evenodd;
        filter: url(#filter);
      }
    </style>
    <filter id="filter" x="135" y="1178" width="13.031" height="18" filterUnits="userSpaceOnUse">
      <feFlood result="flood" flood-color="#313235"/>
      <feComposite result="composite" operator="in" in2="SourceGraphic"/>
      <feBlend result="blend" in2="SourceGraphic"/>
    </filter>
  </defs>
  <path id="ok.svg" class="cls-1" d="M141.5,1178a4.5,4.5,0,1,0,4.646,4.5A4.581,4.581,0,0,0,141.5,1178Zm0,6.75a2.251,2.251,0,1,1,2.323-2.25A2.29,2.29,0,0,1,141.5,1184.75Zm6.161,2.12a1.188,1.188,0,0,0-1.643,0,6.529,6.529,0,0,1-9.035,0,1.188,1.188,0,0,0-1.643,0,1.11,1.11,0,0,0,0,1.6,8.777,8.777,0,0,0,5.166,2.4l-3.312,3.21a1.1,1.1,0,0,0,0,1.59,1.186,1.186,0,0,0,1.642,0l2.664-2.58,2.663,2.58a1.188,1.188,0,0,0,1.643,0,1.1,1.1,0,0,0,0-1.59l-3.312-3.21a8.777,8.777,0,0,0,5.166-2.4A1.111,1.111,0,0,0,147.661,1186.87Z" transform="translate(-135 -1178)"/>
</svg>
