<svg xmlns="http://www.w3.org/2000/svg" width="13.031" height="18.031" viewBox="0 0 13.031 18.031">
  <metadata><?xpacket begin="﻿" id="W5M0MpCehiHzreSzNTczkc9d"?>
<x:xmpmeta xmlns:x="adobe:ns:meta/" x:xmptk="Adobe XMP Core 5.6-c142 79.160924, 2017/07/13-01:06:39        ">
   <rdf:RDF xmlns:rdf="http://www.w3.org/1999/02/22-rdf-syntax-ns#">
      <rdf:Description rdf:about=""/>
   </rdf:RDF>
</x:xmpmeta>
                                                                                                    
                                                                                                    
                                                                                                    
                                                                                                    
                                                                                                    
                                                                                                    
                                                                                                    
                                                                                                    
                                                                                                    
                                                                                                    
                                                                                                    
                                                                                                    
                                                                                                    
                                                                                                    
                                                                                                    
                                                                                                    
                                                                                                    
                                                                                                    
                                                                                                    
                                                                                                    
                           
<?xpacket end="w"?></metadata>
<defs>
    <style>
      .cls-1 {
        fill: #fff;
        fill-rule: evenodd;
      }
    </style>
  </defs>
  <path id="ok.svg" class="cls-1" d="M138.5,863a4.5,4.5,0,1,0,4.646,4.5A4.579,4.579,0,0,0,138.5,863Zm0,6.75a2.251,2.251,0,1,1,2.323-2.25A2.29,2.29,0,0,1,138.5,869.75Zm6.161,2.125a1.188,1.188,0,0,0-1.643,0,6.545,6.545,0,0,1-9.035,0,1.188,1.188,0,0,0-1.643,0,1.1,1.1,0,0,0,0,1.591,8.774,8.774,0,0,0,5.166,2.406l-3.312,3.207a1.1,1.1,0,0,0,0,1.591,1.186,1.186,0,0,0,1.642,0l2.664-2.58,2.663,2.58a1.19,1.19,0,0,0,1.643,0,1.1,1.1,0,0,0,0-1.591l-3.312-3.207a8.774,8.774,0,0,0,5.166-2.406A1.1,1.1,0,0,0,144.661,871.875Z" transform="translate(-132 -863)"/>
</svg>
