<svg xmlns="http://www.w3.org/2000/svg" xmlns:xlink="http://www.w3.org/1999/xlink" width="25" height="25" viewBox="0 0 25 25">
  <metadata><?xpacket begin="﻿" id="W5M0MpCehiHzreSzNTczkc9d"?>
<x:xmpmeta xmlns:x="adobe:ns:meta/" x:xmptk="Adobe XMP Core 5.6-c142 79.160924, 2017/07/13-01:06:39        ">
   <rdf:RDF xmlns:rdf="http://www.w3.org/1999/02/22-rdf-syntax-ns#">
      <rdf:Description rdf:about=""/>
   </rdf:RDF>
</x:xmpmeta>
                                                                                                    
                                                                                                    
                                                                                                    
                                                                                                    
                                                                                                    
                                                                                                    
                                                                                                    
                                                                                                    
                                                                                                    
                                                                                                    
                                                                                                    
                                                                                                    
                                                                                                    
                                                                                                    
                                                                                                    
                                                                                                    
                                                                                                    
                                                                                                    
                                                                                                    
                                                                                                    
                           
<?xpacket end="w"?></metadata>
<defs>
    <style>
      .cls-1 {
        fill: #5b5959;
        fill-rule: evenodd;
        filter: url(#filter);
      }
    </style>
    <filter id="filter" x="35" y="600" width="25" height="25" filterUnits="userSpaceOnUse">
      <feFlood result="flood" flood-color="#b84090"/>
      <feComposite result="composite" operator="in" in2="SourceGraphic"/>
      <feBlend result="blend" in2="SourceGraphic"/>
    </filter>
  </defs>
  <path id="top.svg" class="cls-1" d="M59.9,619.925l-4.535-7.872a8.595,8.595,0,1,0-15.723,0L35.1,619.922a0.781,0.781,0,0,0,.88,1.145l4.588-1.234,1.22,4.586a0.779,0.779,0,0,0,.652.573,0.621,0.621,0,0,0,.1.008,0.781,0.781,0,0,0,.676-0.391l4.277-7.4,4.277,7.4a0.781,0.781,0,0,0,.677.391,0.911,0.911,0,0,0,.1-0.006,0.78,0.78,0,0,0,.651-0.574l1.22-4.586,4.588,1.234A0.781,0.781,0,0,0,59.9,619.925Zm-17.081,2.267-0.936-3.517a0.78,0.78,0,0,0-.958-0.555l-3.522.947,3.141-5.452a8.605,8.605,0,0,0,5.264,3.4Zm-2.347-13.6a7.032,7.032,0,1,1,7.031,7.031A7.04,7.04,0,0,1,40.469,608.594Zm13.61,9.528a0.785,0.785,0,0,0-.594.078,0.777,0.777,0,0,0-.364.476l-0.936,3.517L49.2,617.02a8.6,8.6,0,0,0,5.264-3.4l3.141,5.452Zm-1.931-11.479a0.779,0.779,0,0,0-.544-0.509l-2.216-.58-1.216-2.046a0.81,0.81,0,0,0-1.342,0l-1.216,2.046-2.217.58a0.781,0.781,0,0,0-.414,1.244l1.486,1.859-0.162,2.43a0.785,0.785,0,0,0,.328.689,0.777,0.777,0,0,0,.758.081l2.108-.895,2.108,0.895a0.78,0.78,0,0,0,1.086-.77l-0.163-2.43,1.485-1.859A0.783,0.783,0,0,0,52.148,606.643ZM49.122,608.5a0.775,0.775,0,0,0-.169.539l0.1,1.464-1.245-.53a0.787,0.787,0,0,0-.612,0l-1.244.53,0.1-1.464a0.776,0.776,0,0,0-.169-0.539l-0.924-1.158,1.364-.358a0.781,0.781,0,0,0,.473-0.356l0.708-1.192,0.708,1.192a0.782,0.782,0,0,0,.474.356l1.364,0.358Z" transform="translate(-35 -600)"/>
</svg>
