<?xml version="1.0" encoding="utf-8"?><svg width="77" height="45" viewBox="0 0 77 45" xmlns="http://www.w3.org/2000/svg" xmlns:xlink="http://www.w3.org/1999/xlink"><svg width="20" height="20" viewBox="0 0 20 20" id="faq" x="43" xmlns="http://www.w3.org/2000/svg"><defs><style>.acls-1{fill:#5b5959;fill-rule:evenodd}</style></defs><path id="afaq.svg" class="acls-1" d="M46.694 440.407a1.049 1.049 0 0 0 0 2.1 1.049 1.049 0 0 0 0-2.1zm.177-7.938c-1.838 0-2.682 1.089-2.682 1.824a.781.781 0 0 0 .817.776c.735 0 .436-1.048 1.825-1.048a1.031 1.031 0 0 1 1.225.926c0 .735-.762 1.157-1.212 1.538a2.494 2.494 0 0 0-.912 2.07c0 .708.191.912.749.912.667 0 .8-.3.8-.558a1.71 1.71 0 0 1 .762-1.7 3.486 3.486 0 0 0 1.525-2.492c.003-1.281-1.154-2.248-2.897-2.248zM47 427a9.994 9.994 0 0 0-10 10v9.219a.781.781 0 0 0 .781.781H47a10 10 0 0 0 0-20zm0 18.437h-8.437V437A8.438 8.438 0 1 1 47 445.437z" transform="translate(-37 -427)"/></svg><svg width="8" height="16" viewBox="0 0 8 16" id="fb" x="63" y="18.031" xmlns="http://www.w3.org/2000/svg"><defs><style>.bcls-1{fill:#fff;fill-rule:evenodd}</style></defs><path id="bfb.svg" class="bcls-1" d="M88.255 872.522h1.736v7.22a.257.257 0 0 0 .255.258h2.944a.257.257 0 0 0 .255-.258v-7.187h2a.256.256 0 0 0 .254-.228l.3-2.658a.262.262 0 0 0-.063-.2.254.254 0 0 0-.191-.086h-2.3v-1.666a.689.689 0 0 1 .8-.757h1.5a.257.257 0 0 0 .255-.26v-2.44a.256.256 0 0 0-.256-.26h-2.166a3.943 3.943 0 0 0-2.6.988 2.769 2.769 0 0 0-.905 2.445v1.948h-1.818a.257.257 0 0 0-.255.258v2.624a.257.257 0 0 0 .255.259z" transform="translate(-88 -864)"/></svg><svg width="20" height="20" viewBox="0 0 20 20" id="inst" y="25" xmlns="http://www.w3.org/2000/svg"><defs><style>.ccls-1{fill:#fff;fill-rule:evenodd}</style></defs><path id="cinst.svg" class="ccls-1" d="M187.75 862h-7.5a6.251 6.251 0 0 0-6.25 6.25v7.5a6.251 6.251 0 0 0 6.25 6.25h7.5a6.251 6.251 0 0 0 6.25-6.25v-7.5a6.251 6.251 0 0 0-6.25-6.25zm4.375 13.75a4.38 4.38 0 0 1-4.375 4.375h-7.5a4.38 4.38 0 0 1-4.375-4.375v-7.5a4.379 4.379 0 0 1 4.375-4.375h7.5a4.38 4.38 0 0 1 4.375 4.375v7.5zM184 867a5 5 0 1 0 5 5 5 5 0 0 0-5-5zm0 8.125a3.125 3.125 0 1 1 3.125-3.125 3.129 3.129 0 0 1-3.125 3.125zm5.375-9.166a.666.666 0 1 1-.666.666.666.666 0 0 1 .666-.666z" transform="translate(-174 -862)"/></svg><svg width="18" height="23" viewBox="0 0 18 23" id="list" x="25" xmlns="http://www.w3.org/2000/svg"><defs><style>.dcls-1{fill:#5b5959;fill-rule:evenodd}</style></defs><path id="dlist.svg" class="dcls-1" d="M44.781 362.836a.775.775 0 0 0-1.062 0L41.25 365.2l-.969-.93a.774.774 0 0 0-1.06 0 .7.7 0 0 0 0 1.017l1.5 1.437a.758.758 0 0 0 .529.211.768.768 0 0 0 .531-.21l3-2.874a.7.7 0 0 0 0-1.015zm0 5.75a.775.775 0 0 0-1.062 0l-2.469 2.367-.969-.928a.772.772 0 0 0-1.06 0 .7.7 0 0 0 0 1.016l1.5 1.437a.774.774 0 0 0 1.06 0l3-2.875a.7.7 0 0 0 0-1.017zm5.469-4.524h-3a.72.72 0 1 0 0 1.438h3a.72.72 0 1 0 0-1.438zm0 5.75h-3a.72.72 0 1 0 0 1.438h3a.72.72 0 1 0 0-1.438zm2.25-12.937h-3v-.719a.735.735 0 0 0-.75-.719h-1.628a2.286 2.286 0 0 0-4.245 0H41.25a.735.735 0 0 0-.75.719v.719h-3a1.472 1.472 0 0 0-1.5 1.437v17.25A1.473 1.473 0 0 0 37.5 377h15a1.473 1.473 0 0 0 1.5-1.438v-17.25a1.472 1.472 0 0 0-1.5-1.437zm-10.5 0h1.5a.735.735 0 0 0 .75-.719.751.751 0 0 1 1.5 0 .735.735 0 0 0 .75.719H48v1.437h-6v-1.437zm10.5 18.687h-15v-17.25h3v.719a.735.735 0 0 0 .75.719h7.5a.735.735 0 0 0 .75-.719v-.719h3v17.25z" transform="translate(-36 -354)"/></svg><svg width="13.031" height="18.031" viewBox="0 0 13.031 18.031" id="ok" x="63" xmlns="http://www.w3.org/2000/svg"><defs><style>.ecls-1{fill:#fff;fill-rule:evenodd}</style></defs><path id="eok.svg" class="ecls-1" d="M138.5 863a4.5 4.5 0 1 0 4.646 4.5 4.579 4.579 0 0 0-4.646-4.5zm0 6.75a2.251 2.251 0 1 1 2.323-2.25 2.29 2.29 0 0 1-2.323 2.25zm6.161 2.125a1.188 1.188 0 0 0-1.643 0 6.545 6.545 0 0 1-9.035 0 1.188 1.188 0 0 0-1.643 0 1.1 1.1 0 0 0 0 1.591 8.774 8.774 0 0 0 5.166 2.406l-3.312 3.207a1.1 1.1 0 0 0 0 1.591 1.186 1.186 0 0 0 1.642 0l2.664-2.58 2.663 2.58a1.19 1.19 0 0 0 1.643 0 1.1 1.1 0 0 0 0-1.591l-3.312-3.207a8.774 8.774 0 0 0 5.166-2.406 1.1 1.1 0 0 0 .001-1.591z" transform="translate(-132 -863)"/></svg><svg width="25" height="25" viewBox="0 0 25 25" id="top" xmlns="http://www.w3.org/2000/svg"><defs><style>.fcls-1{fill:#5b5959;fill-rule:evenodd}</style></defs><path id="ftop.svg" class="fcls-1" d="M56.9 304.925l-4.535-7.872a8.595 8.595 0 1 0-15.723 0l-4.542 7.869a.781.781 0 0 0 .88 1.145l4.588-1.234 1.22 4.586a.779.779 0 0 0 .652.573.622.622 0 0 0 .1.008.781.781 0 0 0 .677-.391l4.277-7.4 4.277 7.4a.781.781 0 0 0 .677.391.912.912 0 0 0 .1-.006.779.779 0 0 0 .652-.574l1.22-4.586 4.588 1.235a.781.781 0 0 0 .892-1.144zm-17.08 2.267l-.936-3.517a.788.788 0 0 0-.364-.477.8.8 0 0 0-.594-.078l-3.522.947 3.141-5.452a8.605 8.605 0 0 0 5.264 3.4zm-2.347-13.6a7.032 7.032 0 1 1 7.032 7.031 7.04 7.04 0 0 1-7.036-7.029zm13.61 9.528a.79.79 0 0 0-.594.078.778.778 0 0 0-.364.476l-.936 3.518-2.989-5.172a8.6 8.6 0 0 0 5.264-3.4l3.141 5.452zm-1.931-11.479a.779.779 0 0 0-.544-.509l-2.216-.579-1.216-2.047a.81.81 0 0 0-1.342 0l-1.216 2.047-2.217.579a.781.781 0 0 0-.414 1.244l1.486 1.859-.162 2.43a.785.785 0 0 0 .328.689.777.777 0 0 0 .758.081l2.108-.9 2.108.9a.764.764 0 0 0 .306.063.78.78 0 0 0 .78-.833l-.163-2.43 1.485-1.859a.783.783 0 0 0 .127-.733zm-3.029 1.859a.775.775 0 0 0-.169.539l.1 1.464-1.245-.53a.788.788 0 0 0-.613 0l-1.244.53.1-1.464a.775.775 0 0 0-.169-.539l-.924-1.158 1.364-.358a.782.782 0 0 0 .474-.356l.708-1.192.708 1.192a.782.782 0 0 0 .474.356l1.364.358z" transform="translate(-32 -285)"/></svg><svg width="20" height="11" viewBox="0 0 20 11" id="vk" x="20" y="25" xmlns="http://www.w3.org/2000/svg"><defs><style>.gcls-1{fill:#fff;fill-rule:evenodd}</style></defs><path id="gvk.svg" class="gcls-1" d="M54.177 875.91a26.721 26.721 0 0 0-1.96-1.91.951.951 0 0 1-.155-1.551c.525-.714 1.09-1.4 1.619-2.112a7.61 7.61 0 0 0 1.26-2.123c.165-.506.019-.73-.515-.818a1.649 1.649 0 0 0-.281-.017h-3.171a.707.707 0 0 0-.744.5c-.186.454-.379.908-.6 1.347a11.052 11.052 0 0 1-1.856 2.769.652.652 0 0 1-.657.313 1.026 1.026 0 0 1-.465-.908v-3.555a.769.769 0 0 0-.709-.845H42.65a1.058 1.058 0 0 0-.895.432c-.136.154-.176.254.1.305a1.082 1.082 0 0 1 .936.977 10.622 10.622 0 0 1 .046 2.559 2.329 2.329 0 0 1-.168.731.448.448 0 0 1-.754.215 3 3 0 0 1-.731-.78 17.02 17.02 0 0 1-1.934-3.482.835.835 0 0 0-.792-.576 87.59 87.59 0 0 0-2.854 0c-.572.011-.743.28-.51.784a34.151 34.151 0 0 0 3.694 6.4 9.11 9.11 0 0 0 2.806 2.552 7.642 7.642 0 0 0 4.171.872.764.764 0 0 0 .929-.874 2.887 2.887 0 0 1 .306-1.321.617.617 0 0 1 .97-.229 2.716 2.716 0 0 1 .525.453c.388.413.763.838 1.165 1.237a2.29 2.29 0 0 0 1.857.734h2.914a.7.7 0 0 0 .443-1.1 5.46 5.46 0 0 0-.697-.979z" transform="translate(-35 -867)"/></svg></svg>