<?xml version="1.0" encoding="utf-8"?><svg width="63" height="63" viewBox="0 0 63 63" xmlns="http://www.w3.org/2000/svg" xmlns:xlink="http://www.w3.org/1999/xlink"><svg width="20" height="20" viewBox="0 0 20 20" id="faq" x="43" xmlns="http://www.w3.org/2000/svg"><defs><style>.acls-1{fill:#cf429c;fill-rule:evenodd}</style></defs><path id="afaq.svg" class="acls-1" d="M49.694 755.407a1.049 1.049 0 0 0 0 2.1 1.049 1.049 0 0 0 0-2.1zm.177-7.939c-1.838 0-2.682 1.09-2.682 1.825a.781.781 0 0 0 .817.776c.735 0 .436-1.048 1.824-1.048a1.031 1.031 0 0 1 1.226.926c0 .735-.762 1.157-1.212 1.538a2.5 2.5 0 0 0-.912 2.07c0 .708.191.912.749.912.667 0 .8-.3.8-.558a1.71 1.71 0 0 1 .763-1.7 3.486 3.486 0 0 0 1.525-2.492c.002-1.282-1.156-2.249-2.898-2.249zM50 742a9.994 9.994 0 0 0-10 10v9.219a.781.781 0 0 0 .782.781H50a10 10 0 0 0 0-20zm0 18.437h-8.438V752A8.438 8.438 0 1 1 50 760.437z" transform="translate(-40 -742)"/></svg><svg width="8" height="16" viewBox="0 0 8 16" id="fb" x="13.031" y="45" xmlns="http://www.w3.org/2000/svg"><defs><style>.bcls-1{fill:#fff;fill-rule:evenodd;filter:url(#bfilter)}</style><filter id="bfilter" x="91" y="1179" width="8" height="16" filterUnits="userSpaceOnUse"><feFlood result="flood" flood-color="#313235"/><feComposite result="composite" operator="in" in2="SourceGraphic"/><feBlend result="blend" in2="SourceGraphic"/></filter></defs><path id="bfb.svg" class="bcls-1" d="M91.255 1187.52h1.736v7.22a.26.26 0 0 0 .255.26h2.944a.26.26 0 0 0 .255-.26v-7.18h2a.258.258 0 0 0 .254-.23l.3-2.66a.256.256 0 0 0-.063-.2.242.242 0 0 0-.191-.09h-2.3v-1.67a.685.685 0 0 1 .8-.75h1.5a.26.26 0 0 0 .255-.26v-2.44a.26.26 0 0 0-.255-.26h-2.167a3.931 3.931 0 0 0-2.6.99 2.757 2.757 0 0 0-.905 2.44v1.95h-1.818a.26.26 0 0 0-.256.26v2.62a.254.254 0 0 0 .256.26z" transform="translate(-91 -1179)"/></svg><svg width="20" height="20" viewBox="0 0 20 20" id="inst" y="25" xmlns="http://www.w3.org/2000/svg"><defs><style>.ccls-1{fill:#313235;fill-rule:evenodd}</style></defs><path id="cinst.svg" class="ccls-1" d="M190.75 1177h-7.5a6.252 6.252 0 0 0-6.25 6.25v7.5a6.252 6.252 0 0 0 6.25 6.25h7.5a6.252 6.252 0 0 0 6.25-6.25v-7.5a6.252 6.252 0 0 0-6.25-6.25zm4.375 13.75a4.377 4.377 0 0 1-4.375 4.37h-7.5a4.377 4.377 0 0 1-4.375-4.37v-7.5a4.385 4.385 0 0 1 4.375-4.38h7.5a4.386 4.386 0 0 1 4.375 4.38v7.5zM187 1182a5 5 0 1 0 5 5 5 5 0 0 0-5-5zm0 8.12a3.125 3.125 0 1 1 3.125-3.12 3.126 3.126 0 0 1-3.125 3.12zm5.375-9.16a.665.665 0 1 1-.666.66.666.666 0 0 1 .666-.66z" transform="translate(-177 -1177)"/></svg><svg width="18" height="23" viewBox="0 0 18 23" id="list" x="25" xmlns="http://www.w3.org/2000/svg"><defs><style>.dcls-1{fill:#5b5959;fill-rule:evenodd;filter:url(#dfilter)}</style><filter id="dfilter" x="39" y="669" width="18" height="23" filterUnits="userSpaceOnUse"><feFlood result="flood" flood-color="#b84090"/><feComposite result="composite" operator="in" in2="SourceGraphic"/><feBlend result="blend" in2="SourceGraphic"/></filter></defs><path id="dlist.svg" class="dcls-1" d="M47.781 677.836a.775.775 0 0 0-1.062 0L44.25 680.2l-.969-.93a.774.774 0 0 0-1.06 0 .7.7 0 0 0 0 1.016l1.5 1.438a.758.758 0 0 0 .529.211.768.768 0 0 0 .531-.21l3-2.875a.7.7 0 0 0 0-1.014zm0 5.75a.775.775 0 0 0-1.062 0l-2.469 2.367-.969-.928a.772.772 0 0 0-1.06 0 .7.7 0 0 0 0 1.016l1.5 1.437a.774.774 0 0 0 1.06 0l3-2.875a.7.7 0 0 0 0-1.017zm5.469-4.524h-3a.72.72 0 1 0 0 1.438h3a.72.72 0 1 0 0-1.438zm0 5.75h-3a.72.72 0 1 0 0 1.438h3a.72.72 0 1 0 0-1.438zm2.25-12.937h-3v-.719a.735.735 0 0 0-.75-.719h-1.628a2.286 2.286 0 0 0-4.245 0H44.25a.735.735 0 0 0-.75.719v.719h-3a1.472 1.472 0 0 0-1.5 1.437v17.25A1.473 1.473 0 0 0 40.5 692h15a1.473 1.473 0 0 0 1.5-1.438v-17.25a1.472 1.472 0 0 0-1.5-1.437zm-10.5 0h1.5a.735.735 0 0 0 .75-.719.751.751 0 0 1 1.5 0 .735.735 0 0 0 .75.719H51v1.437h-6v-1.437zm10.5 18.687h-15v-17.25h3v.719a.735.735 0 0 0 .75.719h7.5a.735.735 0 0 0 .75-.719v-.719h3v17.25z" transform="translate(-39 -669)"/></svg><svg width="13.031" height="18" viewBox="0 0 13.031 18" id="ok-color" y="45" xmlns="http://www.w3.org/2000/svg"><defs><style>.ecls-1{fill:#fff;fill-rule:evenodd;filter:url(#efilter)}</style><filter id="efilter" x="135" y="1178" width="13.031" height="18" filterUnits="userSpaceOnUse"><feFlood result="flood" flood-color="#313235"/><feComposite result="composite" operator="in" in2="SourceGraphic"/><feBlend result="blend" in2="SourceGraphic"/></filter></defs><path id="eok.svg" class="ecls-1" d="M141.5 1178a4.5 4.5 0 1 0 4.646 4.5 4.581 4.581 0 0 0-4.646-4.5zm0 6.75a2.251 2.251 0 1 1 2.323-2.25 2.29 2.29 0 0 1-2.323 2.25zm6.161 2.12a1.188 1.188 0 0 0-1.643 0 6.529 6.529 0 0 1-9.035 0 1.188 1.188 0 0 0-1.643 0 1.11 1.11 0 0 0 0 1.6 8.777 8.777 0 0 0 5.166 2.4l-3.312 3.21a1.1 1.1 0 0 0 0 1.59 1.186 1.186 0 0 0 1.642 0l2.664-2.58 2.663 2.58a1.188 1.188 0 0 0 1.643 0 1.1 1.1 0 0 0 0-1.59l-3.312-3.21a8.777 8.777 0 0 0 5.166-2.4 1.111 1.111 0 0 0 .001-1.6z" transform="translate(-135 -1178)"/></svg><svg width="25" height="25" viewBox="0 0 25 25" id="top-color" xmlns="http://www.w3.org/2000/svg"><defs><style>.fcls-1{fill:#5b5959;fill-rule:evenodd;filter:url(#ffilter)}</style><filter id="ffilter" x="35" y="600" width="25" height="25" filterUnits="userSpaceOnUse"><feFlood result="flood" flood-color="#b84090"/><feComposite result="composite" operator="in" in2="SourceGraphic"/><feBlend result="blend" in2="SourceGraphic"/></filter></defs><path id="ftop.svg" class="fcls-1" d="M59.9 619.925l-4.535-7.872a8.595 8.595 0 1 0-15.723 0l-4.542 7.869a.781.781 0 0 0 .88 1.145l4.588-1.234 1.22 4.586a.779.779 0 0 0 .652.573.621.621 0 0 0 .1.008.781.781 0 0 0 .676-.391l4.277-7.4 4.277 7.4a.781.781 0 0 0 .677.391.911.911 0 0 0 .1-.006.78.78 0 0 0 .651-.574l1.22-4.586 4.588 1.234a.781.781 0 0 0 .894-1.143zm-17.081 2.267l-.936-3.517a.78.78 0 0 0-.958-.555l-3.522.947 3.141-5.452a8.605 8.605 0 0 0 5.264 3.4zm-2.347-13.6a7.032 7.032 0 1 1 7.031 7.031 7.04 7.04 0 0 1-7.034-7.029zm13.61 9.528a.785.785 0 0 0-.594.078.777.777 0 0 0-.364.476l-.936 3.517-2.988-5.171a8.6 8.6 0 0 0 5.264-3.4l3.141 5.452zm-1.931-11.479a.779.779 0 0 0-.544-.509l-2.216-.58-1.216-2.046a.81.81 0 0 0-1.342 0l-1.216 2.046-2.217.58a.781.781 0 0 0-.414 1.244l1.486 1.859-.162 2.43a.785.785 0 0 0 .328.689.777.777 0 0 0 .758.081l2.108-.895 2.108.895a.78.78 0 0 0 1.086-.77l-.163-2.43 1.485-1.859a.783.783 0 0 0 .128-.733zm-3.029 1.859a.775.775 0 0 0-.169.539l.1 1.464-1.245-.53a.787.787 0 0 0-.612 0l-1.244.53.1-1.464a.776.776 0 0 0-.169-.539l-.924-1.158 1.364-.358a.781.781 0 0 0 .473-.356l.708-1.192.708 1.192a.782.782 0 0 0 .474.356l1.364.358z" transform="translate(-35 -600)"/></svg><svg width="20" height="11" viewBox="0 0 20 11" id="vk-color" x="20" y="25" xmlns="http://www.w3.org/2000/svg"><defs><style>.gcls-1{fill:#fff;fill-rule:evenodd;filter:url(#gfilter)}</style><filter id="gfilter" x="38" y="1182" width="20" height="11" filterUnits="userSpaceOnUse"><feFlood result="flood" flood-color="#313235"/><feComposite result="composite" operator="in" in2="SourceGraphic"/><feBlend result="blend" in2="SourceGraphic"/></filter></defs><path id="gvk.svg" class="gcls-1" d="M57.177 1190.91c-.6-.69-1.3-1.29-1.96-1.92a.949.949 0 0 1-.155-1.55c.525-.71 1.09-1.4 1.619-2.11a7.609 7.609 0 0 0 1.26-2.12c.165-.51.019-.73-.515-.82a2.622 2.622 0 0 0-.281-.02h-3.17a.7.7 0 0 0-.744.5c-.186.45-.379.9-.6 1.34a10.883 10.883 0 0 1-1.856 2.77.661.661 0 0 1-.657.32 1.037 1.037 0 0 1-.465-.91v-3.56a.771.771 0 0 0-.706-.83H45.65a1.074 1.074 0 0 0-.895.43c-.136.16-.176.26.1.31a1.075 1.075 0 0 1 .936.97 10.637 10.637 0 0 1 .047 2.56 2.293 2.293 0 0 1-.168.73.446.446 0 0 1-.754.22 2.925 2.925 0 0 1-.731-.78 16.879 16.879 0 0 1-1.934-3.48.837.837 0 0 0-.792-.58c-.951-.01-1.9-.02-2.854 0-.572.01-.743.28-.51.79a33.972 33.972 0 0 0 3.694 6.39 9.137 9.137 0 0 0 2.807 2.56 7.632 7.632 0 0 0 4.171.87.764.764 0 0 0 .929-.87 2.91 2.91 0 0 1 .307-1.33.619.619 0 0 1 .97-.23 2.863 2.863 0 0 1 .525.46c.388.41.762.84 1.165 1.23a2.291 2.291 0 0 0 1.857.74h2.914a.7.7 0 0 0 .443-1.1 5.4 5.4 0 0 0-.7-.98z" transform="translate(-38 -1182)"/></svg></svg>