<?xml version="1.0" encoding="utf-8"?><svg width="20" height="11" viewBox="0 0 20 11" xmlns="http://www.w3.org/2000/svg" xmlns:xlink="http://www.w3.org/1999/xlink"><svg width="20" height="11" viewBox="0 0 20 11" id="vk-color" xmlns="http://www.w3.org/2000/svg"><defs><style>.acls-1{fill:#fff;fill-rule:evenodd;filter:url(#afilter)}</style><filter id="afilter" x="38" y="1182" width="20" height="11" filterUnits="userSpaceOnUse"><feFlood result="flood" flood-color="#313235"/><feComposite result="composite" operator="in" in2="SourceGraphic"/><feBlend result="blend" in2="SourceGraphic"/></filter></defs><path id="avk.svg" class="acls-1" d="M57.177 1190.91c-.6-.69-1.3-1.29-1.96-1.92a.949.949 0 0 1-.155-1.55c.525-.71 1.09-1.4 1.619-2.11a7.609 7.609 0 0 0 1.26-2.12c.165-.51.019-.73-.515-.82a2.622 2.622 0 0 0-.281-.02h-3.17a.7.7 0 0 0-.744.5c-.186.45-.379.9-.6 1.34a10.883 10.883 0 0 1-1.856 2.77.661.661 0 0 1-.657.32 1.037 1.037 0 0 1-.465-.91v-3.56a.771.771 0 0 0-.706-.83H45.65a1.074 1.074 0 0 0-.895.43c-.136.16-.176.26.1.31a1.075 1.075 0 0 1 .936.97 10.637 10.637 0 0 1 .047 2.56 2.293 2.293 0 0 1-.168.73.446.446 0 0 1-.754.22 2.925 2.925 0 0 1-.731-.78 16.879 16.879 0 0 1-1.934-3.48.837.837 0 0 0-.792-.58c-.951-.01-1.9-.02-2.854 0-.572.01-.743.28-.51.79a33.972 33.972 0 0 0 3.694 6.39 9.137 9.137 0 0 0 2.807 2.56 7.632 7.632 0 0 0 4.171.87.764.764 0 0 0 .929-.87 2.91 2.91 0 0 1 .307-1.33.619.619 0 0 1 .97-.23 2.863 2.863 0 0 1 .525.46c.388.41.762.84 1.165 1.23a2.291 2.291 0 0 0 1.857.74h2.914a.7.7 0 0 0 .443-1.1 5.4 5.4 0 0 0-.7-.98z" transform="translate(-38 -1182)"/></svg></svg>