<?xml version="1.0" encoding="utf-8"?><svg xmlns="http://www.w3.org/2000/svg" xmlns:xlink="http://www.w3.org/1999/xlink"><symbol viewBox="0 0 20 20" id="faq" xmlns="http://www.w3.org/2000/svg"><defs><style>.acls-1{fill:#5b5959;fill-rule:evenodd}</style></defs><path id="afaq.svg" class="acls-1" d="M46.694 440.407a1.049 1.049 0 0 0 0 2.1 1.049 1.049 0 0 0 0-2.1zm.177-7.938c-1.838 0-2.682 1.089-2.682 1.824a.781.781 0 0 0 .817.776c.735 0 .436-1.048 1.825-1.048a1.031 1.031 0 0 1 1.225.926c0 .735-.762 1.157-1.212 1.538a2.494 2.494 0 0 0-.912 2.07c0 .708.191.912.749.912.667 0 .8-.3.8-.558a1.71 1.71 0 0 1 .762-1.7 3.486 3.486 0 0 0 1.525-2.492c.003-1.281-1.154-2.248-2.897-2.248zM47 427a9.994 9.994 0 0 0-10 10v9.219a.781.781 0 0 0 .781.781H47a10 10 0 0 0 0-20zm0 18.437h-8.437V437A8.438 8.438 0 1 1 47 445.437z" transform="translate(-37 -427)"/></symbol><symbol viewBox="0 0 18 23" id="list" xmlns="http://www.w3.org/2000/svg"><defs><style>.bcls-1{fill:#5b5959;fill-rule:evenodd}</style></defs><path id="blist.svg" class="bcls-1" d="M44.781 362.836a.775.775 0 0 0-1.062 0L41.25 365.2l-.969-.93a.774.774 0 0 0-1.06 0 .7.7 0 0 0 0 1.017l1.5 1.437a.758.758 0 0 0 .529.211.768.768 0 0 0 .531-.21l3-2.874a.7.7 0 0 0 0-1.015zm0 5.75a.775.775 0 0 0-1.062 0l-2.469 2.367-.969-.928a.772.772 0 0 0-1.06 0 .7.7 0 0 0 0 1.016l1.5 1.437a.774.774 0 0 0 1.06 0l3-2.875a.7.7 0 0 0 0-1.017zm5.469-4.524h-3a.72.72 0 1 0 0 1.438h3a.72.72 0 1 0 0-1.438zm0 5.75h-3a.72.72 0 1 0 0 1.438h3a.72.72 0 1 0 0-1.438zm2.25-12.937h-3v-.719a.735.735 0 0 0-.75-.719h-1.628a2.286 2.286 0 0 0-4.245 0H41.25a.735.735 0 0 0-.75.719v.719h-3a1.472 1.472 0 0 0-1.5 1.437v17.25A1.473 1.473 0 0 0 37.5 377h15a1.473 1.473 0 0 0 1.5-1.438v-17.25a1.472 1.472 0 0 0-1.5-1.437zm-10.5 0h1.5a.735.735 0 0 0 .75-.719.751.751 0 0 1 1.5 0 .735.735 0 0 0 .75.719H48v1.437h-6v-1.437zm10.5 18.687h-15v-17.25h3v.719a.735.735 0 0 0 .75.719h7.5a.735.735 0 0 0 .75-.719v-.719h3v17.25z" transform="translate(-36 -354)"/></symbol><symbol viewBox="0 0 25 25" id="top" xmlns="http://www.w3.org/2000/svg"><defs><style>.ccls-1{fill:#5b5959;fill-rule:evenodd}</style></defs><path id="ctop.svg" class="ccls-1" d="M56.9 304.925l-4.535-7.872a8.595 8.595 0 1 0-15.723 0l-4.542 7.869a.781.781 0 0 0 .88 1.145l4.588-1.234 1.22 4.586a.779.779 0 0 0 .652.573.622.622 0 0 0 .1.008.781.781 0 0 0 .677-.391l4.277-7.4 4.277 7.4a.781.781 0 0 0 .677.391.912.912 0 0 0 .1-.006.779.779 0 0 0 .652-.574l1.22-4.586 4.588 1.235a.781.781 0 0 0 .892-1.144zm-17.08 2.267l-.936-3.517a.788.788 0 0 0-.364-.477.8.8 0 0 0-.594-.078l-3.522.947 3.141-5.452a8.605 8.605 0 0 0 5.264 3.4zm-2.347-13.6a7.032 7.032 0 1 1 7.032 7.031 7.04 7.04 0 0 1-7.036-7.029zm13.61 9.528a.79.79 0 0 0-.594.078.778.778 0 0 0-.364.476l-.936 3.518-2.989-5.172a8.6 8.6 0 0 0 5.264-3.4l3.141 5.452zm-1.931-11.479a.779.779 0 0 0-.544-.509l-2.216-.579-1.216-2.047a.81.81 0 0 0-1.342 0l-1.216 2.047-2.217.579a.781.781 0 0 0-.414 1.244l1.486 1.859-.162 2.43a.785.785 0 0 0 .328.689.777.777 0 0 0 .758.081l2.108-.9 2.108.9a.764.764 0 0 0 .306.063.78.78 0 0 0 .78-.833l-.163-2.43 1.485-1.859a.783.783 0 0 0 .127-.733zm-3.029 1.859a.775.775 0 0 0-.169.539l.1 1.464-1.245-.53a.788.788 0 0 0-.613 0l-1.244.53.1-1.464a.775.775 0 0 0-.169-.539l-.924-1.158 1.364-.358a.782.782 0 0 0 .474-.356l.708-1.192.708 1.192a.782.782 0 0 0 .474.356l1.364.358z" transform="translate(-32 -285)"/></symbol></svg>